<?xml version="1.0" encoding="UTF-8" standalone="no"?>
<!-- Created with Inkscape (http://www.inkscape.org/) -->

<svg
   version="1.1"
   id="svg1"
   width="1280"
   height="720"
   viewBox="0 0 1280 720"
   xmlns="http://www.w3.org/2000/svg"
   xmlns:svg="http://www.w3.org/2000/svg">
  <defs
     id="defs1" />
  <g
     id="g1">
    <path
       style="fill:#000000"
       d="m 399.85664,101.04801 33.01569,32.3487 7.00332,-7.00333 8.67079,9.00428 40.01901,-39.018537 61.36249,64.697407 -36.18386,38.18481 8.0038,7.00332 -8.33729,8.83754 270.43613,270.67525 8.01769,-6.83861 8.72513,9.19675 37.49447,-35.84377 60.60427,61.0759 -34.6647,36.31541 11.08327,10.84745 -8.96094,7.31025 35.13633,34.19307 -19.10096,18.86514 -34.6647,-34.19307 -8.01768,7.78187 -9.66839,-9.19676 -36.55122,34.90052 -62.7266,-63.43405 38.20192,-36.55121 -9.9042,-9.19676 8.2535,-7.07443 -270.24319,-269.53574 -8.96094,7.31024 -8.48932,-9.19675 -38.43773,36.78703 -63.19823,-65.08475 38.90936,-36.3154 -11.08327,-9.66839 7.78187,-6.13117 -35.13633,-35.37214 20.04422,-17.214447 z"
       id="path1" />
    <path
       style="fill:#000000"
       d="m 879.45609,98.82529 -33.01569,32.3487 -7.00332,-7.00333 -8.67079,9.00428 -40.01901,-39.01854 -61.36249,64.69741 36.18386,38.18481 -8.0038,7.00332 8.33729,8.83754 -270.43613,270.67525 -8.01769,-6.83861 -8.72513,9.19675 -37.49447,-35.84377 -60.60427,61.0759 34.6647,36.31541 -11.08327,10.84745 8.96094,7.31025 -35.13633,34.19307 19.10096,18.86514 34.6647,-34.19307 8.01768,7.78187 9.66839,-9.19676 36.55122,34.90052 62.7266,-63.43405 -38.20192,-36.55121 9.9042,-9.19676 -8.2535,-7.07443 270.24319,-269.53574 8.96094,7.31024 8.48932,-9.19675 38.43773,36.78703 63.19823,-65.08475 -38.90936,-36.3154 11.08327,-9.66839 -7.78187,-6.13117 35.13633,-35.37214 -20.04422,-17.21445 z"
       id="path1-2" />
  </g>
</svg>
