<?xml version="1.0" encoding="UTF-8" standalone="no"?>
<!-- Created with Inkscape (http://www.inkscape.org/) -->

<svg
   version="1.1"
   id="svg1"
   width="227"
   height="222"
   viewBox="0 0 227 222"
   sodipodi:docname="logo2.svg"
   inkscape:version="1.3.2 (091e20e, 2023-11-25, custom)"
   xmlns:inkscape="http://www.inkscape.org/namespaces/inkscape"
   xmlns:sodipodi="http://sodipodi.sourceforge.net/DTD/sodipodi-0.dtd"
   xmlns="http://www.w3.org/2000/svg"
   xmlns:svg="http://www.w3.org/2000/svg">
  <defs
     id="defs1" />
  <sodipodi:namedview
     id="namedview1"
     pagecolor="#ffffff"
     bordercolor="#000000"
     borderopacity="0.25"
     inkscape:showpageshadow="2"
     inkscape:pageopacity="0.0"
     inkscape:pagecheckerboard="0"
     inkscape:deskcolor="#d1d1d1"
     inkscape:zoom="2.4748737"
     inkscape:cx="73.741136"
     inkscape:cy="86.267027"
     inkscape:window-width="1920"
     inkscape:window-height="991"
     inkscape:window-x="-9"
     inkscape:window-y="-9"
     inkscape:window-maximized="1"
     inkscape:current-layer="g1" />
  <g
     inkscape:groupmode="layer"
     inkscape:label="Image"
     id="g1">
    <g
       id="g2">
      <path
         style="fill:#fdfdfd"
         d="M 0,111 V 0 H 113.5 227 V 111 222 H 113.5 0 Z m 131.97384,62.51617 c 0.96869,-0.59869 0.9431,-0.95409 -0.11708,-1.62586 -0.93409,-0.59187 -0.42218,-0.86788 1.64324,-0.886 1.65,-0.0145 4.78053,-0.32035 6.95674,-0.67971 3.07227,-0.50733 3.51934,-0.80713 2,-1.34118 -1.11838,-0.39312 2.34804,-0.99354 8.09068,-1.40139 15.7668,-1.1198 16.71135,-3.2377 1.90982,-4.28226 -4.7193,-0.33304 -8.0488,-0.93416 -7.39891,-1.33582 0.84051,-0.51947 0.68296,-1.00935 -0.54578,-1.69699 -1.21592,-0.68046 2.02455,-1.12874 10.94379,-1.51394 6.96916,-0.30097 12.9425,-0.81853 13.2741,-1.15012 1.30036,-1.30037 -1.00004,-1.84953 -10.42413,-2.48851 l -9.80631,-0.66488 6.1806,-0.76656 c 3.39933,-0.42161 6.32433,-1.17204 6.5,-1.66763 0.17567,-0.49559 6.83378,-1.38866 14.79581,-1.9846 14.97018,-1.12049 19.24014,-2.35712 12.40384,-3.59231 -2.13414,-0.3856 -4.26579,-0.92324 -4.73701,-1.19475 -1.26597,-0.72944 1.50314,-2.21069 4.16578,-2.22835 4.20037,-0.0279 1.31182,-1.76975 -4.0458,-2.43976 -5.03868,-0.63012 -5.78528,-1.15021 -17.50053,-12.19107 l -12.23731,-11.53288 1.64308,-3.1758 C 161.71042,101.99774 161.34723,84.467706 154.7969,71.607964 152.08736,66.288523 144.53449,58.358085 138.5,54.496363 111.77174,37.391841 75.599317,52.792841 68.87663,84.139653 67.38286,91.10486 68.297022,103.1939 70.816074,109.78719 l 2.020037,5.28718 -10.378166,12.31271 -10.378167,12.3127 -7.744425,0.65465 c -4.259433,0.36005 -8.135997,1.04621 -8.614585,1.5248 -1.147591,1.14759 3.328184,1.87771 16.779232,2.73715 8.693779,0.55547 10.422139,0.89693 8.243769,1.62863 -3.467661,1.16478 -2.629452,2.71248 1.565248,2.89014 1.755041,0.0743 -0.859017,0.52177 -5.809017,0.99432 -4.95,0.47255 -9.675,1.15579 -10.5,1.51833 -2.123498,0.93314 4.952821,2.19801 13.5,2.41308 l 7,0.17614 -7,1.13378 c -9.610151,1.55654 -7.049354,2.70027 7.552123,3.373 9.879501,0.45518 11.634982,0.76451 10.218173,1.80051 -1.498314,1.09559 -1.155707,1.37447 2.759498,2.2462 3.777385,0.84105 4.005247,1.01428 1.470206,1.11771 -1.65,0.0673 -3.622413,0.5166 -4.38314,0.99839 -1.600911,1.01392 0.666528,1.5777 10.88314,2.70605 5.071503,0.5601 5.950578,0.87941 4,1.45293 -2.31688,0.68121 -2.258733,0.74235 0.793837,0.83473 2.553625,0.0773 3.227804,0.49295 3,1.84968 -0.224958,1.33978 0.643814,1.90794 3.706163,2.42377 5.15006,0.86749 30.8482,0.3471 32.47384,-0.6576 z m -19.11886,-39.20843 -20.64501,-11.61161 0.970956,-2.78529 c 0.677535,-1.94358 1.854604,-2.95536 3.895015,-3.34806 9.837029,-1.89328 9.048169,-1.4221 7.474809,-4.46463 -0.78186,-1.51196 -2.59354,-5.41507 -4.02596,-8.67358 L 97.920406,97.5 111.9252,111.45167 c 7.70264,7.67342 13.84629,14.11017 13.65257,14.30389 -0.19373,0.19373 -3.17872,-0.79627 -6.63333,-2.2 -3.4546,-1.40374 -6.40697,-2.42636 -6.56082,-2.27251 -0.15386,0.15385 2.4366,2.47852 5.75657,5.16593 5.68248,4.59979 5.91405,4.95163 3.95059,6.00244 -1.95704,1.04737 -1.65401,1.48235 4.91175,7.05073 6.23857,5.29088 7.60153,6.59527 6.74747,6.45753 -0.1375,-0.0222 -9.54026,-5.26555 -20.89502,-11.65194 z M 146.25,130.17229 c -8.3875,-4.75703 -15.24311,-9.10436 -15.23469,-9.66072 0.0351,-2.32044 1.93902,-3.69576 5.84057,-4.21907 2.27927,-0.30571 4.14412,-0.73147 4.14412,-0.94613 0,-0.21465 -1.32178,-3.3054 -2.93728,-6.86833 C 136.44721,104.91512 135.26057,102 135.42574,102 c 0.16517,0 4.93891,4.98819 10.60831,11.08488 9.59939,10.32288 10.03845,10.96968 6.38697,9.40919 -6.83241,-2.9199 -7.00489,-2.87188 -2.92102,0.81324 2.2,1.98519 4.3375,3.62817 4.75,3.65106 1.59632,0.0886 0.65355,2.04338 -1,2.07346 -1.17931,0.0214 0.0436,1.64162 3.75,4.96817 3.025,2.71499 5.275,4.91049 5,4.87889 -0.275,-0.0316 -7.3625,-3.94957 -15.75,-8.7066 z"
         id="path9" />
      <path
         style="fill:#f8a529"
         d="m 114.20821,108.71215 c -2.65217,-2.70237 -4.20615,-5.19826 -4.20263,-6.75 0.0169,-7.456609 5.36443,-15.965325 11.69668,-18.611106 4.78442,-1.999058 12.00109,-1.673061 17.048,0.770105 7.67873,3.71721 11.62093,12.756264 9.79898,22.468071 l -0.69678,3.71417 -7.17623,-7.12437 L 133.5,96.054645 131,99.203299 c -1.375,1.731761 -2.95647,3.631961 -3.51438,4.222681 -0.55791,0.59071 -2.50823,2.98652 -4.33403,5.32402 -1.82581,2.3375 -3.63814,4.25 -4.02741,4.25 -0.38927,0 -2.60146,-1.92953 -4.91597,-4.28785 z M 109.8125,47.316886 c 0.72187,-0.288871 1.58437,-0.253344 1.91667,0.07895 0.33229,0.332292 -0.25834,0.568641 -1.3125,0.52522 -1.16495,-0.04798 -1.4019,-0.284941 -0.60417,-0.604167 z"
         id="path8" />
      <path
         style="fill:#708fb7"
         d="m 108.25,174.26101 c 3.1625,-0.19845 8.3375,-0.19845 11.5,0 3.1625,0.19845 0.575,0.36082 -5.75,0.36082 -6.325,0 -8.9125,-0.16237 -5.75,-0.36082 z M 130,173.60699 c 0,-0.21616 0.69837,-0.661 1.55194,-0.98855 0.88992,-0.34149 1.29132,-0.17385 0.94098,0.39301 C 131.90566,173.96166 130,174.4169 130,173.60699 Z M 96,171 c 0,-0.55 1.2375,-0.99311 2.75,-0.98469 2.14294,0.0119 2.41887,0.22931 1.25,0.98469 -1.956534,1.26441 -4,1.26441 -4,0 z m 32,-0.0471 C 128,170.4288 130.55,170 133.66667,170 c 6.84628,0 6.68418,0.51072 -0.41667,1.31277 -3.07516,0.34735 -5.25,0.19826 -5.25,-0.35988 z M 91,168 c -3.271949,-0.68871 -3.174213,-0.7388 1.5,-0.76868 2.75,-0.0176 6.125,0.32833 7.5,0.76868 2.12246,0.67973 1.89594,0.79581 -1.5,0.76868 C 96.3,168.7511 92.925,168.40519 91,168 Z m 44.76166,0.29274 c 1.24391,-0.23919 3.04391,-0.23011 4,0.0202 0.95609,0.25029 -0.0617,0.446 -2.26166,0.4349 -2.2,-0.0111 -2.98225,-0.21589 -1.73834,-0.45508 z m 9.98834,-0.99847 c 1.2375,-0.23836 3.2625,-0.23836 4.5,0 1.2375,0.23835 0.225,0.43337 -2.25,0.43337 -2.475,0 -3.4875,-0.19502 -2.25,-0.43337 z m -66,-0.95655 c 0.6875,-0.27741 1.8125,-0.27741 2.5,0 0.6875,0.27741 0.125,0.50439 -1.25,0.50439 -1.375,0 -1.9375,-0.22698 -1.25,-0.50439 z m 78,0 c 0.6875,-0.27741 1.8125,-0.27741 2.5,0 0.6875,0.27741 0.125,0.50439 -1.25,0.50439 -1.375,0 -1.9375,-0.22698 -1.25,-0.50439 z m -72.9375,-3.02083 c 0.721875,-0.28887 1.584375,-0.25335 1.916667,0.0789 0.332291,0.33229 -0.258334,0.56864 -1.3125,0.52522 -1.164943,-0.048 -1.4019,-0.28494 -0.604167,-0.60416 z m 65.94916,-0.0241 c 1.24391,-0.23919 3.04391,-0.23011 4,0.0202 0.95609,0.25029 -0.0617,0.446 -2.26166,0.4349 -2.2,-0.0111 -2.98225,-0.21589 -1.73834,-0.45508 z M 79.8125,162.31689 c 0.721875,-0.28887 1.584375,-0.25335 1.916667,0.0789 0.332291,0.33229 -0.258334,0.56864 -1.3125,0.52522 -1.164943,-0.048 -1.4019,-0.28494 -0.604167,-0.60416 z m 62,0 c 0.72187,-0.28887 1.58437,-0.25335 1.91667,0.0789 0.33229,0.33229 -0.25834,0.56864 -1.3125,0.52522 -1.16495,-0.048 -1.4019,-0.28494 -0.60417,-0.60416 z m 0.6875,-1.853 c -1.65,-0.75553 -2.29851,-1.39398 -1.44113,-1.41879 0.85738,-0.0248 2.43238,0.61559 3.5,1.4231 2.37041,1.79288 1.86374,1.79182 -2.05887,-0.004 z m -62.6875,-1.147 c 0.721875,-0.28887 1.584375,-0.25335 1.916667,0.0789 0.332291,0.33229 -0.258334,0.56864 -1.3125,0.52522 -1.164943,-0.048 -1.4019,-0.28494 -0.604167,-0.60416 z M 62.25,158.31067 c 0.9625,-0.25152 2.5375,-0.25152 3.5,0 0.9625,0.25153 0.175,0.45733 -1.75,0.45733 -1.925,0 -2.7125,-0.2058 -1.75,-0.45733 z m 94.51166,-0.0179 c 1.24391,-0.23919 3.04391,-0.23011 4,0.0202 0.95609,0.25029 -0.0617,0.446 -2.26166,0.4349 -2.2,-0.0111 -2.98225,-0.21589 -1.73834,-0.45508 z M 53.5,157 c -0.339919,-0.55 -0.168034,-1 0.381966,-1 0.55,0 1.278115,0.45 1.618034,1 0.339919,0.55 0.168034,1 -0.381966,1 -0.55,0 -1.278115,-0.45 -1.618034,-1 z m 112.5,0.60699 c 0,-0.21616 0.675,-0.65203 1.5,-0.96862 0.825,-0.31658 1.5,-0.13972 1.5,0.39301 0,0.53274 -0.675,0.96862 -1.5,0.96862 -0.825,0 -1.5,-0.17686 -1.5,-0.39301 z M 60.25,155.31067 c 0.9625,-0.25152 2.5375,-0.25152 3.5,0 0.9625,0.25153 0.175,0.45733 -1.75,0.45733 -1.925,0 -2.7125,-0.2058 -1.75,-0.45733 z m 100.01903,-0.004 c 0.97297,-0.25354 2.32297,-0.23687 3,0.0371 0.67703,0.27393 -0.11903,0.48137 -1.76903,0.46099 -1.65,-0.0204 -2.20394,-0.2445 -1.23097,-0.49804 z M 67.25,154.31067 c 0.9625,-0.25152 2.5375,-0.25152 3.5,0 0.9625,0.25153 0.175,0.45733 -1.75,0.45733 -1.925,0 -2.7125,-0.2058 -1.75,-0.45733 z m 78.5,0.0271 c 0.6875,-0.27741 1.8125,-0.27741 2.5,0 0.6875,0.27741 0.125,0.50439 -1.25,0.50439 -1.375,0 -1.9375,-0.22698 -1.25,-0.50439 z m -93.480968,-1.03071 c 0.972967,-0.25354 2.322967,-0.23687 3,0.0371 0.677032,0.27393 -0.119032,0.48137 -1.769032,0.46099 -1.65,-0.0204 -2.203936,-0.2445 -1.230968,-0.49804 z m 98.980968,0.004 c 0.9625,-0.25152 2.5375,-0.25152 3.5,0 0.9625,0.25153 0.175,0.45733 -1.75,0.45733 -1.925,0 -2.7125,-0.2058 -1.75,-0.45733 z M 45.5,152 c 0.339919,-0.55 1.068034,-1 1.618034,-1 0.55,0 0.721885,0.45 0.381966,1 -0.339919,0.55 -1.068034,1 -1.618034,1 -0.55,0 -0.721885,-0.45 -0.381966,-1 z m 114,0 c 0.33992,-0.55 0.81648,-1 1.05902,-1 0.24254,0 0.44098,0.45 0.44098,1 0,0.55 -0.47656,1 -1.05902,1 -0.58246,0 -0.7809,-0.45 -0.44098,-1 z M 54.25,150.31067 c 0.9625,-0.25152 2.5375,-0.25152 3.5,0 0.9625,0.25153 0.175,0.45733 -1.75,0.45733 -1.925,0 -2.7125,-0.2058 -1.75,-0.45733 z m 109.51166,-0.0179 c 1.24391,-0.23919 3.04391,-0.23011 4,0.0202 0.95609,0.25029 -0.0617,0.446 -2.26166,0.4349 -2.2,-0.0111 -2.98225,-0.21589 -1.73834,-0.45508 z M 65.75,149.33772 c 0.6875,-0.27741 1.8125,-0.27741 2.5,0 0.6875,0.27741 0.125,0.50439 -1.25,0.50439 -1.375,0 -1.9375,-0.22698 -1.25,-0.50439 z m 113.5,-0.0271 c 0.9625,-0.25152 2.5375,-0.25152 3.5,0 0.9625,0.25153 0.175,0.45733 -1.75,0.45733 -1.925,0 -2.7125,-0.2058 -1.75,-0.45733 z m 8.75,-0.69404 c 0,-0.21085 0.90062,-0.61888 2.00138,-0.90674 1.10076,-0.28785 1.7492,-0.11534 1.44098,0.38337 C 190.90411,148.96417 188,149.4057 188,148.61663 Z m -128,-2 c 0,-0.21085 0.9,-0.61872 2,-0.90638 1.1,-0.28766 2,-0.11514 2,0.38337 C 64,146.59213 63.1,147 62,147 c -1.1,0 -2,-0.17252 -2,-0.38337 z m 74,-0.67565 c 0,-0.58246 0.45,-0.7809 1,-0.44098 0.55,0.33992 1,0.81648 1,1.05902 0,0.24254 -0.45,0.44098 -1,0.44098 -0.55,0 -1,-0.47656 -1,-1.05902 z m 51.75,0.39674 c 0.6875,-0.27741 1.8125,-0.27741 2.5,0 0.6875,0.27741 0.125,0.50439 -1.25,0.50439 -1.375,0 -1.9375,-0.22698 -1.25,-0.50439 z m -3.08333,-1.00439 c -1.22194,-1.22193 -0.68741,-2.33427 1.08333,-2.25438 1.05575,0.0476 1.25163,0.27987 0.49377,0.58541 -0.69093,0.27855 -1.00187,0.91803 -0.69098,1.42105 0.65657,1.06237 0.0875,1.22158 -0.88612,0.24792 z M 53.25,144.28375 c 1.5125,-0.22913 3.9875,-0.22913 5.5,0 1.5125,0.22912 0.275,0.41659 -2.75,0.41659 -3.025,0 -4.2625,-0.18747 -2.75,-0.41659 z m -12.980968,-0.97674 c 0.972967,-0.25354 2.322967,-0.23687 3,0.0371 0.677032,0.27393 -0.119032,0.48137 -1.769032,0.46099 -1.65,-0.0204 -2.203936,-0.2445 -1.230968,-0.49804 z m -4.535699,-1.4311 c 0.678334,-0.68342 1.485241,-0.99067 1.793128,-0.68278 0.307888,0.30789 -0.247112,0.86705 -1.233333,1.24258 -1.425198,0.54268 -1.540062,0.42782 -0.559795,-0.5598 z M 127.92431,140.25 125.5,137.5 l 2.75,2.42431 c 2.57029,2.26589 3.20859,3.07569 2.42431,3.07569 -0.17912,0 -1.41662,-1.2375 -2.75,-2.75 z M 188,142 c -0.90129,-0.58246 -1.02463,-0.97549 -0.30902,-0.98469 0.65504,-0.008 1.4691,0.43469 1.80902,0.98469 0.7673,1.24153 0.42112,1.24153 -1.5,0 z M 43.25,140.31067 c 0.9625,-0.25152 2.5375,-0.25152 3.5,0 0.9625,0.25153 0.175,0.45733 -1.75,0.45733 -1.925,0 -2.7125,-0.2058 -1.75,-0.45733 z M 173.46241,135.75 168.5,130.5 l 5,4.67101 c 2.75,2.56905 6.125,4.87027 7.5,5.11381 l 2.5,0.44282 -2.53759,0.13618 c -1.85903,0.0998 -3.86456,-1.26769 -7.5,-5.11382 z M 52,139.62244 c 0,-0.20765 0.7875,-0.99515 1.75,-1.75 1.586056,-1.24387 1.621426,-1.2085 0.377555,0.37756 C 52.821186,139.91575 52,140.44548 52,139.62244 Z m 110,-0.68146 c 0,-0.58246 -0.41891,-0.80012 -0.9309,-0.48369 -0.512,0.31644 -1.19434,0.14909 -1.51631,-0.37188 -1.18795,-1.92213 1.23925,-1.97269 2.96855,-0.0618 C 163.54278,139.15226 163.81457,140 163.15499,140 162.51974,140 162,139.52344 162,138.94098 Z M 120.87244,134.25 c -1.24387,-1.58606 -1.2085,-1.62143 0.37756,-0.37756 0.9625,0.75485 1.75,1.54235 1.75,1.75 0,0.82304 -0.82119,0.29331 -2.12756,-1.37244 z M 57.5,133 c 0.995486,-1.1 2.034975,-2 2.309975,-2 0.275,0 -0.314489,0.9 -1.309975,2 -0.995486,1.1 -2.034975,2 -2.309975,2 -0.275,0 0.314489,-0.9 1.309975,-2 z m 52.94113,0.44483 c -1.86402,-1.49339 -1.85176,-1.51185 0.30887,-0.46481 1.2375,0.59969 2.25,1.29951 2.25,1.55516 0,0.76522 -0.51861,0.54424 -2.55887,-1.09035 z M 153.92431,131.25 151.5,128.5 l 2.75,2.42431 c 2.57029,2.26589 3.20859,3.07569 2.42431,3.07569 -0.17912,0 -1.41662,-1.2375 -2.75,-2.75 z m -31.13257,1.07381 c 1.05565,-0.42357 1.05565,-0.82037 0,-2.17106 -1.15236,-1.47442 -1.1041,-1.50565 0.44725,-0.28944 1.81727,1.42467 1.50026,3.19352 -0.54801,3.05774 -0.81746,-0.0542 -0.78586,-0.2415 0.10076,-0.59724 z M 62,127.62244 c 0,-0.20765 0.7875,-0.99515 1.75,-1.75 1.586056,-1.24387 1.621426,-1.2085 0.377555,0.37756 C 62.821186,127.91575 62,128.44548 62,127.62244 Z M 117.87244,126.25 c -1.24387,-1.58606 -1.2085,-1.62143 0.37756,-0.37756 1.66575,1.30637 2.19548,2.12756 1.37244,2.12756 -0.20765,0 -0.99515,-0.7875 -1.75,-1.75 z m 34,-1 c -1.24387,-1.58606 -1.2085,-1.62143 0.37756,-0.37756 1.66575,1.30637 2.19548,2.12756 1.37244,2.12756 -0.20765,0 -0.99515,-0.7875 -1.75,-1.75 z M 93,124 c -0.901292,-0.58246 -1.024633,-0.97549 -0.309017,-0.98469 0.655041,-0.008 1.469098,0.43469 1.809017,0.98469 0.767305,1.24153 0.421123,1.24153 -1.5,0 z m 63,-0.059 c 0,-0.58246 -0.5625,-0.73531 -1.25,-0.33967 -0.6875,0.39564 -0.9009,0.33559 -0.47422,-0.13343 0.42668,-0.46903 -1.59753,-3.35368 -4.49826,-6.41033 -4.54442,-4.78871 -4.34047,-4.66232 1.47422,0.91356 3.71154,3.55911 6.74826,6.59661 6.74826,6.75 0,0.15339 -0.45,0.27889 -1,0.27889 -0.55,0 -1,-0.47656 -1,-1.05902 z M 112.5,122 c -0.33992,-0.55 -0.14148,-1 0.44098,-1 0.58246,0 1.05902,0.45 1.05902,1 0,0.55 -0.19844,1 -0.44098,1 -0.24254,0 -0.7191,-0.45 -1.05902,-1 z M 67,121.62244 c 0,-0.20765 0.7875,-0.99515 1.75,-1.75 1.586056,-1.24387 1.621426,-1.2085 0.377555,0.37756 C 67.821186,121.91575 67,122.44548 67,121.62244 Z M 146.5,121 c -0.33992,-0.55 -0.14148,-1 0.44098,-1 0.58246,0 1.05902,0.45 1.05902,1 0,0.55 -0.19844,1 -0.44098,1 -0.24254,0 -0.7191,-0.45 -1.05902,-1 z m -53.243265,-3 c 0.224949,-0.825 1.271708,-1.60456 2.326131,-1.73237 1.347044,-0.16326 1.471085,-0.0443 0.417134,0.39995 -0.825,0.34777 -1.871759,1.12733 -2.326131,1.73236 -0.531354,0.70754 -0.680194,0.56484 -0.417134,-0.39994 z m 38.000005,0 c 0.22494,-0.825 1.2717,-1.60456 2.32613,-1.73237 1.34704,-0.16326 1.47108,-0.0443 0.41713,0.39995 -0.825,0.34777 -1.87176,1.12733 -2.32613,1.73236 -0.53136,0.70754 -0.6802,0.56484 -0.41713,-0.39994 z M 72,115.62244 c 0,-0.20765 0.7875,-0.99515 1.75,-1.75 1.586056,-1.24387 1.621426,-1.2085 0.377555,0.37756 C 72.821186,115.91575 72,116.44548 72,115.62244 Z m 28.8125,-0.30555 c 0.72187,-0.28887 1.58437,-0.25335 1.91667,0.0789 0.33229,0.3323 -0.25834,0.56864 -1.3125,0.52522 -1.16495,-0.048 -1.4019,-0.28494 -0.60417,-0.60416 z M 139.5,115 c 0.33992,-0.55 0.81648,-1 1.05902,-1 0.24254,0 0.44098,0.45 0.44098,1 0,0.55 -0.47656,1 -1.05902,1 -0.58246,0 -0.7809,-0.45 -0.44098,-1 z m -34.45439,-10.45381 c -2.96233,-2.9996 -5.828988,-5.18007 -6.370344,-4.845493 -0.541356,0.334573 -0.68695,0.127226 -0.323544,-0.460778 0.363407,-0.588004 0.09544,-1.270926 -0.595491,-1.517604 -0.690927,-0.246678 -1.006496,-0.722348 -0.701263,-1.057045 0.305232,-0.334696 3.668162,2.528697 7.473182,6.3631 3.80502,3.83439 6.68991,6.97163 6.41087,6.97163 -0.27904,0 -2.93107,-2.45422 -5.89341,-5.45381 z M 105,100.5 c -2.42903,-2.475 -4.19142,-4.5 -3.91642,-4.5 0.275,0 2.48739,2.025 4.91642,4.5 2.42903,2.475 4.19142,4.5 3.91642,4.5 -0.275,0 -2.48739,-2.025 -4.91642,-4.5 z m -22,2.12244 c 0,-0.20765 0.7875,-0.99515 1.75,-1.75 1.586056,-1.243866 1.621426,-1.208496 0.377555,0.37756 C 83.821186,102.91575 83,103.44548 83,102.62244 Z m 45,0 c 0,-0.20765 0.7875,-0.99515 1.75,-1.75 1.58606,-1.243866 1.62143,-1.208496 0.37756,0.37756 C 128.82119,102.91575 128,103.44548 128,102.62244 Z M 135.40499,98.75 133.5,96.5 l 2.25,1.904988 C 137.86444,100.19521 138.45524,101 137.65499,101 c -0.18976,0 -1.20226,-1.0125 -2.25,-2.25 z"
         id="path7" />
      <path
         style="fill:#f58a1c"
         d="m 149.28362,111.88362 c -0.75546,-0.75546 -0.9521,-3.45002 -0.57767,-7.91616 0.71602,-8.540739 -1.89932,-14.743514 -7.88729,-18.706163 -4.61579,-3.054585 -12.75924,-4.096072 -18.14063,-2.320053 -6.65055,2.194879 -12.65483,11.213171 -12.67245,19.033726 -0.005,2.19593 -0.84026,1.64586 -7.40869,-4.878723 -7.202808,-7.15474 -7.37381,-7.438146 -6.320401,-10.474973 0.595485,-1.716701 3.625879,-5.66877 6.734211,-8.782376 4.30827,-4.315589 6.92317,-6.038747 11.0019,-7.25 15.43009,-4.582243 29.62532,1.401423 37.21926,15.688906 1.81596,3.416607 2.24549,5.843983 2.25121,12.722196 0.008,9.16347 -1.94109,15.14198 -4.19945,12.88362 z"
         id="path6" />
      <path
         style="fill:#ed6b22"
         d="m 151.65766,114.25509 c -0.39879,-0.64525 0.0248,-3.4657 0.94125,-6.26767 4.55864,-13.937235 -2.11157,-29.089853 -15.82111,-35.940589 -7.0515,-3.523676 -14.17132,-4.010039 -22.49914,-1.536942 -5.8513,1.737649 -13.81722,8.349046 -16.820124,13.960034 -1.92431,3.595614 -5.806181,8.3709 -14.185356,17.450127 L 79.04636,106.5 79.02318,98.839094 c -0.053,-17.514951 7.950123,-30.359368 23.29302,-37.383577 14.64911,-6.706584 32.96721,-2.719842 44.02779,9.582186 7.93797,8.828938 11.56025,20.762186 9.72503,32.038197 -1.13166,6.95322 -3.42746,12.77118 -4.41136,11.17919 z M 113.26903,47.307009 c 0.97297,-0.253543 2.32297,-0.236869 3,0.03705 0.67703,0.273923 -0.11903,0.481368 -1.76903,0.460988 -1.65,-0.02038 -2.20394,-0.244498 -1.23097,-0.498042 z"
         id="path5" />
      <path
         style="fill:#e35222"
         d="m 153,115.12412 c 0,-0.54666 0.48705,-2.26072 1.08233,-3.80902 3.45858,-8.99566 2.93613,-22.042817 -1.23828,-30.92349 C 144.13929,61.873033 120.64035,53.066443 102.3162,61.455517 87.025087,68.456019 79,81.290186 79,98.744082 v 7.565898 l 2.209502,-1.90499 c 1.215226,-1.04775 0.01928,0.70157 -2.657653,3.88736 -2.676935,3.18579 -5.202178,5.43579 -5.611652,5 C 72.530723,112.85656 71.52172,110.475 70.697967,108 63.37694,86.003656 73.580934,62.274105 94.666595,52.260569 c 6.966645,-3.308442 8.837435,-3.749703 17.321785,-4.085656 10.83645,-0.429088 18.80994,1.622109 27.27719,7.017118 17.3653,11.064513 25.03574,34.56392 17.69027,54.196459 C 155.02968,114.53662 153,117.47947 153,115.12412 Z M 97.924314,93.25 95.5,90.5 98.25,92.924314 C 100.82029,95.190201 101.45859,96 100.67431,96 100.49519,96 99.257687,94.7625 97.924314,93.25 Z M 92.5,91 c 0.995486,-1.1 2.034975,-2 2.309975,-2 0.275,0 -0.314489,0.9 -1.309975,2 -0.995486,1.1 -2.034975,2 -2.309975,2 -0.275,0 0.314489,-0.9 1.309975,-2 z"
         id="path4" />
      <path
         style="fill:#1256a6"
         d="m 97.244183,172.5 c -0.310658,-0.55 -0.229655,-0.69947 0.180007,-0.33215 C 98.219661,172.88109 102,170.08035 102,168.77776 102,168.34999 101.12656,168 100.05902,168 c -1.067544,0 -2.233046,-0.47256 -2.590008,-1.05014 -0.378397,-0.61226 -3.760727,-0.96778 -8.111637,-0.85262 -4.104438,0.10864 -7.869632,-0.2095 -8.367097,-0.70696 -0.539309,-0.53931 0.351917,-0.90162 2.207442,-0.89738 1.711558,0.004 3.312812,-0.57957 3.558342,-1.29662 0.312304,-0.91205 -0.410159,-1.21248 -2.404822,-1 -2.284007,0.2433 -2.852663,-0.0942 -2.858395,-1.69628 -0.0064,-1.79721 -0.716182,-2.0121 -7,-2.11937 -3.846065,-0.0657 -7.77776,-0.4503 -8.737101,-0.85478 -3.041496,-1.28236 -0.918118,-2.35719 3.494447,-1.76884 3.935577,0.52474 4.144511,0.43916 2.82571,-1.15742 -1.164995,-1.41039 -2.841303,-1.67576 -9.213376,-1.45854 -4.284102,0.14604 -8.143257,-0.12265 -8.575901,-0.59709 -0.432643,-0.47444 -0.01215,-0.58504 0.934437,-0.24578 0.946584,0.33926 2.372923,-0.035 3.169643,-0.83174 0.947106,-0.94711 2.480631,-1.24217 4.429798,-0.85234 1.63967,0.32793 3.80697,0.13413 4.816224,-0.43068 1.660753,-0.9294 1.575207,-1.09212 -0.90086,-1.71358 C 64.933615,148.01751 64,147.12272 64,145.84776 c 0,-1.06449 -0.5625,-1.84473 -1.25,-1.73388 -0.6875,0.11086 -2.043488,-0.14486 -3.013306,-0.56826 -0.969818,-0.42339 -4.951216,-0.58968 -8.847551,-0.36951 -6.925194,0.3913 -7.03485,0.36029 -4.884162,-1.38123 1.320671,-1.06941 3.075953,-1.56169 4.391302,-1.23156 1.453159,0.36472 2.818133,-0.14277 4.052456,-1.50668 C 55.472419,137.92549 55.980704,137 55.578262,137 c -0.402442,0 0.671819,-1.18099 2.387248,-2.62443 1.715428,-1.44344 2.890214,-2.85318 2.610637,-3.13276 -0.279578,-0.27957 0.601416,-1.38124 1.957765,-2.44815 C 63.89026,127.72776 65,126.37269 65,125.7834 c 0,-0.5893 1.6875,-2.61256 3.75,-4.49614 2.0625,-1.88359 3.075,-3.10945 2.25,-2.72414 -0.825,0.38531 0.075,-0.69048 2,-2.39064 1.925,-1.70016 3.101814,-3.10949 2.615141,-3.13184 -0.486672,-0.0224 0.300828,-0.9733 1.75,-2.11322 C 78.814314,109.7875 80,108.32986 80,107.68821 c 0,-0.64164 1.106565,-2.29648 2.459034,-3.67742 C 87.889455,98.466069 91.800398,94 91.225499,94 c -0.334267,0 0.26575,-0.65424 1.333371,-1.453866 1.714617,-1.284212 2.086994,-1.261909 3.19113,0.19113 0.6875,0.904747 1.25,1.249763 1.25,0.766702 0,-0.483061 2.871955,2.108976 6.38212,5.760082 3.51017,3.651102 6.57574,6.444762 6.81237,6.208132 0.23664,-0.23664 2.39322,1.56987 4.79241,4.01447 l 4.36216,4.44472 2.82547,-2.95658 c 1.55401,-1.62612 2.82547,-3.31047 2.82547,-3.743 0,-0.43253 1.2375,-1.91776 2.75,-3.30051 1.5125,-1.38275 3.23244,-3.36914 3.82209,-4.414196 1.04434,-1.850907 1.16086,-1.844325 4.5,0.254189 1.88535,1.184867 12.165,11.171047 22.84366,22.191517 C 171.02857,134.46331 179.06167,142 180.27274,142 c 1.29588,0 1.75397,0.48802 1.37792,1.46797 -0.51246,1.33547 0.85797,2.97863 2.51601,3.01672 0.36666,0.008 1.00416,0.35281 1.41666,0.76531 0.4125,0.4125 -0.825,0.75 -2.75,0.75 -1.925,0 -3.83617,0.33617 -4.24704,0.74704 -0.41087,0.41088 -4.57719,0.61198 -9.25849,0.44691 -5.18705,-0.1829 -8.28254,0.0703 -7.92537,0.64818 0.88392,1.4302 -2.38581,2.44122 -7.15243,2.21157 -2.46477,-0.11875 -4.25,0.24207 -4.25,0.85898 0,0.58506 -0.7875,0.95655 -1.75,0.82553 -0.9625,-0.13102 -1.75,0.21179 -1.75,0.76179 0,0.55939 2.73822,1 6.21466,1 5.31115,0 6.01216,0.20245 4.82176,1.39252 -0.99704,0.99678 -3.68685,1.33724 -9.46466,1.19798 -6.93025,-0.16703 -8.07176,0.0401 -8.07176,1.46447 0,1.12737 0.52601,1.45716 1.64144,1.02913 1.37248,-0.52667 1.43434,-0.38034 0.37756,0.89301 -1.09663,1.32136 -0.72616,1.52289 2.79954,1.52289 2.23488,0 4.34154,0.45 4.68146,1 0.33992,0.55 2.46648,1 4.72568,1 2.25921,0 3.82941,0.27825 3.48933,0.61832 -0.34008,0.34008 -3.79105,0.60647 -7.66883,0.59199 -4.69635,-0.0175 -6.83281,0.32591 -6.39852,1.02861 0.43813,0.70891 -0.87844,0.88246 -4.01363,0.52908 -2.5661,-0.28924 -4.91008,-0.13036 -5.20885,0.35306 C 134.12641,168.60448 132.81008,169 131.5,169 c -2.80059,0 -4.08761,1.58704 -2.67113,3.2938 0.77437,0.93306 -2.62452,1.2062 -15.0094,1.2062 -9.63041,0 -16.235535,-0.39849 -16.575287,-1 z m 38.475267,-26.84164 c -0.21236,-0.6371 -1.02362,-1.17881 -1.80278,-1.20381 -0.77917,-0.025 -1.3701,-0.475 -1.31318,-1 0.0569,-0.525 -1.71543,-2.52955 -3.93857,-4.45455 -2.22314,-1.925 -3.69884,-2.825 -3.27934,-2 0.41951,0.825 0.0544,0.62649 -0.81142,-0.44113 -1.98543,-2.44828 -1.97824,-3.18983 0.0385,-3.96371 1.30599,-0.50116 1.37778,-0.9018 0.37756,-2.10699 C 124.31089,129.66968 123.29732,129 122.7378,129 c -1.09851,0 -3.65406,-2.97994 -3.706,-4.32143 -0.0175,-0.45178 0.70122,-0.0884 1.59714,0.80751 0.89592,0.89592 2.24592,1.39218 3,1.10282 0.75408,-0.28937 1.37106,-2.5e-4 1.37106,0.64248 0,0.88841 0.28151,0.88711 1.17404,-0.005 0.89871,-0.89871 0.60558,-1.70823 -1.25,-3.45196 -1.33322,-1.25286 -3.23238,-3.40204 -4.22035,-4.77596 -0.98797,-1.37392 -1.48088,-1.82304 -1.09534,-0.99804 0.38554,0.825 -0.71862,0.17831 -2.45369,-1.43709 -3.29121,-3.06423 -4.03652,-4.21075 -1.90466,-2.92997 0.85971,0.5165 0.82433,0.22613 -0.11331,-0.92997 -0.74982,-0.92452 -1.73122,-1.45356 -2.1809,-1.17565 -0.44968,0.27792 -1.08103,0.0791 -1.403,-0.44191 -0.32198,-0.52097 -0.0585,-1.27284 0.58541,-1.67082 0.7938,-0.4906 0.90843,-0.27134 0.35598,0.6809 -0.44816,0.77248 -0.48018,1.10451 -0.0712,0.73784 1.11719,-1.00153 0.7421,-2.32733 -0.67301,-2.37878 -0.6875,-0.025 -1.1,-0.7 -0.91667,-1.5 0.18334,-0.8 -0.0163,-1.10489 -0.44369,-0.67752 -0.42736,0.42736 -3.38563,-1.80437 -6.57393,-4.9594 C 99.281973,96.831203 97.75526,95.84474 96.809397,96.790603 95.863534,97.736466 95.874347,98 96.859017,98 c 0.692459,0 0.980902,0.45 0.640983,1 -0.339919,0.55 -0.114919,1 0.5,1 0.614919,0 0.839919,0.45 0.5,1 -0.339919,0.55 -0.114919,1 0.5,1 0.614919,0 0.886024,0.3754 0.602457,0.83422 -0.56804,0.91911 3.251153,9.29901 4.686793,10.28352 1.15808,0.79419 -4.09402,2.26018 -7.039129,1.96481 -2.728615,-0.27366 -4.683031,1.52185 -5.589999,5.13549 -0.584278,2.32796 -0.172802,3.041 2.998382,5.19588 2.021578,1.37369 4.050424,2.26597 4.508546,1.98284 0.458123,-0.28314 0.83295,0.0368 0.83295,0.71089 0,0.67413 0.29301,0.93268 0.65112,0.57456 0.35812,-0.35812 1.14562,-0.0296 1.75,0.72999 1.20304,1.51202 14.59888,8.88517 14.59888,8.0353 0,-0.28898 0.98485,0.39212 2.18856,1.51354 2.05532,1.91483 3.28313,2.43817 5.06144,2.15738 0.4125,-0.0651 0.75,0.35814 0.75,0.9406 0,0.58246 0.45,0.7809 1,0.44098 0.55,-0.33992 1,-0.2385 1,0.22538 0,1.20197 5.59075,4.35054 6.35968,3.5816 0.35218,-0.35217 0.64032,-0.0888 0.64032,0.58537 0,0.67413 0.47375,0.93289 1.05279,0.57503 0.57903,-0.35787 0.87903,-1.17192 0.66666,-1.80902 z M 164,139.06695 c 0,-0.51318 -2.04467,-2.60851 -4.54372,-4.65628 -2.96552,-2.43003 -4.20352,-4.06343 -3.56428,-4.70267 0.63924,-0.63924 0.47756,-1.48129 -0.46548,-2.42433 -0.79469,-0.7947 -1.15952,-1.90667 -0.81071,-2.47105 0.3488,-0.56438 0.91544,-0.6406 1.25919,-0.16938 0.34375,0.47122 1.20677,0.97568 1.91782,1.12103 1.58752,0.32452 0.13323,-2.75083 -2.22721,-4.70982 -0.84898,-0.70459 -1.2514,-1.79258 -0.89427,-2.41776 0.35712,-0.62518 0.31067,-0.83269 -0.10323,-0.46114 -0.4139,0.37155 -2.10808,-0.52845 -3.76485,-2 -6.63454,-5.89285 -8.72744,-8.17849 -7.54416,-8.23894 0.6825,-0.0349 0.2284,-0.47036 -1.0091,-0.96777 -1.2375,-0.49742 -2.25,-1.44389 -2.25,-2.10328 0,-0.65939 -0.30098,-0.89791 -0.66885,-0.53004 -0.89251,0.8925 -4.43086,-2.36516 -3.75563,-3.45771 0.2906,-0.4702 -0.25976,-0.55247 -1.22302,-0.18284 -1.08622,0.41683 -1.29348,0.8247 -0.54571,1.07396 0.66312,0.22104 0.95131,0.81346 0.64042,1.31648 C 134.13633,103.58843 134.38508,104 135,104 c 0.61492,0 0.83992,0.45 0.5,1 -0.33992,0.55 -0.11492,1 0.5,1 0.61492,0 0.83992,0.45 0.5,1 -0.33992,0.55 -0.21648,1 0.27432,1 0.49079,0 0.94926,0.5625 1.01881,1.25 0.0696,0.6875 0.4082,2.41524 0.75255,3.83941 0.59033,2.44155 0.44212,2.56241 -2.59539,2.1166 -2.42692,-0.35619 -3.49227,-0.008 -4.31939,1.41059 -1.4006,2.40263 -1.81311,6.61404 -0.57276,5.84747 C 131.57616,122.14391 132,122.38508 132,123 c 0,0.61492 0.45,0.83992 1,0.5 0.55,-0.33992 1,-0.2385 1,0.22538 0,1.08468 5.99495,4.65372 6.01531,3.58116 0.008,-0.4436 0.34592,-0.33279 0.75,0.24625 1.23356,1.76765 7.88547,5.46309 8.58128,4.76729 0.35937,-0.35938 0.65341,-0.13445 0.65341,0.49983 0,0.95206 5.75059,4.07401 7.55387,4.10093 0.28466,0.004 1.20863,0.6988 2.05327,1.54345 1.69548,1.69547 4.39286,2.06553 4.39286,0.60266 z m -108.492921,17.9445 c -0.350339,-0.56686 0.05106,-0.7345 0.940983,-0.39301 1.732417,0.66479 2.049387,1.38156 0.610955,1.38156 -0.517541,0 -1.215913,-0.44485 -1.551938,-0.98855 z"
         id="path3" />
      <path
         style="fill:#034d99"
         d="m 98.656829,173.25 c -0.253662,-0.4125 7.131201,-0.75 16.410801,-0.75 9.2796,0 16.09809,0.30587 15.15219,0.67971 -2.36785,0.93584 -30.991535,0.99958 -31.562991,0.0703 z m -6.387797,-3.94299 c 0.972967,-0.25354 2.322967,-0.23687 3,0.0371 0.677032,0.27393 -0.119032,0.48137 -1.769032,0.46099 -1.65,-0.0204 -2.203936,-0.2445 -1.230968,-0.49804 z m 6,0 c 0.972967,-0.25354 2.322968,-0.23687 2.999998,0.0371 0.67703,0.27393 -0.11903,0.48137 -1.76903,0.46099 -1.65,-0.0204 -2.203936,-0.2445 -1.230968,-0.49804 z M 132.25,169.27153 c 2.0625,-0.21574 5.4375,-0.21574 7.5,0 2.0625,0.21575 0.375,0.39226 -3.75,0.39226 -4.125,0 -5.8125,-0.17651 -3.75,-0.39226 z m -45.522304,-2.99326 c 1.775232,-0.22091 4.925232,-0.22454 7,-0.008 2.074767,0.21648 0.622304,0.39722 -3.227696,0.40166 -3.85,0.004 -5.547537,-0.17268 -3.772304,-0.39359 z m 61.040214,-0.003 c 1.79735,-0.22256 4.49735,-0.21797 6,0.0102 1.50265,0.22818 0.0321,0.41027 -3.26791,0.40466 -3.3,-0.006 -4.52944,-0.1923 -2.73209,-0.41486 z M 79,165 c 1.375,-0.44035 3.625,-0.79225 5,-0.78201 2.245596,0.0167 2.194715,0.0963 -0.5,0.78201 -1.65,0.41985 -3.9,0.77176 -5,0.78201 -1.567195,0.0146 -1.458994,-0.15463 0.5,-0.78201 z m 75,0 -4.5,-0.69961 4.5,-0.0799 c 2.475,-0.0439 5.4,0.30683 6.5,0.77952 l 2,0.85943 -2,-0.0799 C 159.4,165.73557 156.475,165.38479 154,165 Z m -69.1875,-2.68311 c 0.721875,-0.28887 1.584375,-0.25335 1.916667,0.0789 0.332291,0.33229 -0.258334,0.56864 -1.3125,0.52522 -1.164943,-0.048 -1.4019,-0.28494 -0.604167,-0.60416 z M 78,161 c 1.938759,-1.25292 3,-1.25292 3,0 0,0.55 -1.0125,0.99311 -2.25,0.98469 C 76.930562,161.9723 76.787041,161.78387 78,161 Z m 63,0 c -0.825,-0.53316 -1.05,-0.96937 -0.5,-0.96937 0.55,0 1.675,0.43621 2.5,0.96937 0.825,0.53316 1.05,0.96937 0.5,0.96937 -0.55,0 -1.675,-0.43621 -2.5,-0.96937 z m -69.25,-2.7234 c 1.7875,-0.22182 4.7125,-0.22182 6.5,0 1.7875,0.22183 0.325,0.40333 -3.25,0.40333 -3.575,0 -5.0375,-0.1815 -3.25,-0.40333 z m 70.25,0.10929 c 5.96927,-0.75081 12.77461,-0.8257 12.34694,-0.13589 -0.25573,0.4125 -3.70092,0.68258 -7.65596,0.60017 -3.95504,-0.0824 -6.06598,-0.29133 -4.69098,-0.46428 z m -85.203271,-1.53268 c -0.802607,-0.50914 0.22748,-0.82258 2.703271,-0.82258 2.2,0 4.675,0.43689 5.5,0.97086 1.086186,0.70303 0.340418,0.92996 -2.703271,0.82259 -2.311798,-0.0816 -4.786798,-0.51845 -5.5,-0.97087 z M 157.5,157 c 0.33992,-0.55 2.72898,-0.99311 5.30902,-0.98469 3.39735,0.0111 4.27732,0.28264 3.19098,0.98469 -2.01117,1.29972 -9.30327,1.29972 -8.5,0 z m -89.25,-1.68933 c 0.9625,-0.25152 2.5375,-0.25152 3.5,0 0.9625,0.25153 0.175,0.45733 -1.75,0.45733 -1.925,0 -2.7125,-0.2058 -1.75,-0.45733 z m 80.51791,-0.0354 c 1.79735,-0.22256 4.49735,-0.21797 6,0.0102 1.50265,0.22818 0.0321,0.41027 -3.26791,0.40466 -3.3,-0.006 -4.52944,-0.1923 -2.73209,-0.41486 z m -88.040214,-1.997 c 1.775232,-0.22091 4.925232,-0.22454 7,-0.008 2.074767,0.21648 0.622304,0.39722 -3.227696,0.40166 -3.85,0.004 -5.547537,-0.17268 -3.772304,-0.39359 z M 48.441954,152.09392 C 48.813798,151.49226 51.416476,151 54.225684,151 c 6.400341,0 5.604066,1.05537 -1.284147,1.70199 -3.596423,0.3376 -4.969372,0.15207 -4.499583,-0.60807 z M 150.5,152.49353 c 2.28577,-0.79677 8.32228,-1.015 7.87084,-0.28454 -0.26888,0.43506 -2.37482,0.75548 -4.67986,0.71206 -2.30504,-0.0434 -3.74098,-0.2358 -3.19098,-0.42752 z m -87.230968,-2.18652 c 0.972967,-0.25354 2.322967,-0.23687 3,0.0371 0.677032,0.27393 -0.119032,0.48137 -1.769032,0.46099 -1.65,-0.0204 -2.203936,-0.2445 -1.230968,-0.49804 z m 99.994718,-1.02459 c 1.52006,-0.22986 3.77006,-0.22371 5,0.0136 1.22994,0.23736 -0.0137,0.42542 -2.76375,0.41792 -2.75,-0.008 -3.75631,-0.20172 -2.23625,-0.43157 z m 9.00528,0.0246 c 0.97297,-0.25354 2.32297,-0.23687 3,0.0371 0.67703,0.27393 -0.11903,0.48137 -1.76903,0.46099 -1.65,-0.0204 -2.20394,-0.2445 -1.23097,-0.49804 z M 60.5,148 c -1.82305,-0.78339 -1.778812,-0.85943 0.5,-0.85943 1.375,0 3.4,0.38674 4.5,0.85943 1.82305,0.78339 1.778812,0.85943 -0.5,0.85943 -1.375,0 -3.4,-0.38674 -4.5,-0.85943 z m 118.58333,0.6252 c 0.22917,-0.20614 3.11667,-0.6346 6.41667,-0.95212 3.88694,-0.37401 5.11956,-0.27711 3.5,0.27512 -2.46603,0.84086 -10.72569,1.40473 -9.91667,0.677 z m -48.6422,-3.18037 c -1.86402,-1.49339 -1.85176,-1.51185 0.30887,-0.46481 1.2375,0.59969 2.25,1.29951 2.25,1.55516 0,0.76522 -0.51861,0.54424 -2.55887,-1.09035 z M 181.87244,145.25 c -1.24387,-1.58606 -1.2085,-1.62143 0.37756,-0.37756 1.66575,1.30637 2.19548,2.12756 1.37244,2.12756 -0.20765,0 -0.99515,-0.7875 -1.75,-1.75 z M 49.25,143.27153 c 2.0625,-0.21574 5.4375,-0.21574 7.5,0 2.0625,0.21575 0.375,0.39226 -3.75,0.39226 -4.125,0 -5.8125,-0.17651 -3.75,-0.39226 z M 38,142 c 2.004618,-1.29548 8.300653,-1.29548 7.5,0 -0.339919,0.55 -2.503976,0.99311 -4.809017,0.98469 C 37.616658,142.97345 36.899665,142.71109 38,142 Z m 89.94617,-2.75 -3.44617,-3.75 3.98897,3.5 c 2.19393,1.925 4.18143,3.6125 4.41667,3.75 0.23523,0.1375 -0.009,0.25 -0.54281,0.25 -0.53377,0 -2.52127,-1.6875 -4.41666,-3.75 z m 52.48774,2.99519 c -1.13635,-0.18485 -6.08635,-4.47814 -11,-9.54064 L 160.5,123.5 l 9.01978,8.75 c 7.80809,7.57455 9.48731,8.75206 12.5,8.76531 1.91412,0.008 4.13744,0.43102 4.9407,0.9391 1.47532,0.93318 -1.70611,1.07492 -6.52657,0.29078 z m -58.99278,-1.80036 c -1.86402,-1.49339 -1.85176,-1.51185 0.30887,-0.46481 1.2375,0.59969 2.25,1.29951 2.25,1.55516 0,0.76522 -0.51861,0.54424 -2.55887,-1.09035 z M 51,140.29056 c 0.825,-0.30334 2.4,-1.28032 3.5,-2.17105 1.982966,-1.60572 1.983775,-1.60035 0.09501,0.63049 -1.047743,1.2375 -2.622743,2.21447 -3.5,2.17105 -1.353787,-0.067 -1.368156,-0.16236 -0.09501,-0.63049 z m 107.75,-5.42954 c -5.20573,-4.45956 -5.61375,-5.31821 -3,-6.31328 1.43121,-0.54487 1.51513,-0.42967 0.46065,0.63237 -1.05433,1.06188 -0.41632,2.06825 3.5,5.52082 2.63414,2.32223 4.56435,4.2238 4.28935,4.22573 -0.275,0.002 -2.6375,-1.82761 -5.25,-4.06564 z m -44.30887,1.58381 c -1.86402,-1.49339 -1.85176,-1.51185 0.30887,-0.46481 1.2375,0.59969 2.25,1.29951 2.25,1.55516 0,0.76522 -0.51861,0.54424 -2.55887,-1.09035 z M 58,133.5 c 1.291745,-1.375 2.573628,-2.5 2.848628,-2.5 0.275,0 -0.556883,1.125 -1.848628,2.5 -1.291745,1.375 -2.573628,2.5 -2.848628,2.5 -0.275,0 0.556883,-1.125 1.848628,-2.5 z m 64,1 c -0.71755,-0.86459 -0.81474,-1.5 -0.22943,-1.5 0.5585,0 1.27447,0.675 1.59106,1.5 0.31658,0.825 0.41982,1.5 0.22943,1.5 -0.19039,0 -0.90637,-0.675 -1.59106,-1.5 z m 28.50708,-0.48855 c -0.35034,-0.56686 0.0511,-0.7345 0.94098,-0.39301 1.73242,0.66479 2.04939,1.38156 0.61096,1.38156 -0.51754,0 -1.21592,-0.44485 -1.55194,-0.98855 z m -44.76466,-1.92546 c -3.99766,-2.5628 -4.73532,-3.60167 -1.24242,-1.74976 4.18972,2.22137 6.17845,3.64346 5,3.57536 -0.55,-0.0318 -2.24091,-0.8533 -3.75758,-1.8256 z m 18.58224,0.25602 c 0.36189,-0.3619 0.0994,-1.3744 -0.58334,-2.25 -1.09654,-1.40633 -1.0385,-1.433 0.49767,-0.2287 1.56442,1.22645 1.58594,3.13669 0.0353,3.13669 -0.33421,0 -0.31156,-0.2961 0.0503,-0.65799 z m 22.11647,-0.89718 c -1.86402,-1.49339 -1.85176,-1.51185 0.30887,-0.46481 1.2375,0.59969 2.25,1.29951 2.25,1.55516 0,0.76522 -0.51861,0.54424 -2.55887,-1.09035 z M 62.5,128 c 0.995486,-1.1 2.034975,-2 2.309975,-2 0.275,0 -0.314489,0.9 -1.309975,2 -0.995486,1.1 -2.034975,2 -2.309975,2 -0.275,0 0.314489,-0.9 1.309975,-2 z m 33.94113,-1.55517 c -1.864025,-1.49339 -1.851756,-1.51185 0.30887,-0.46481 1.2375,0.59969 2.25,1.29951 2.25,1.55516 0,0.76522 -0.518608,0.54424 -2.55887,-1.09035 z m 21.50671,-1.00035 c -1.7447,-1.85715 -1.92898,-2.37447 -0.67431,-1.89301 0.94956,0.36438 1.72647,1.09092 1.72647,1.61454 0,0.52361 0.44644,0.67611 0.99208,0.33888 0.54564,-0.33722 1.78314,-0.11729 2.75,0.48874 1.49305,0.93585 1.40004,1.0032 -0.61731,0.44699 -1.61133,-0.44427 -2.15517,-0.29882 -1.69098,0.45225 1.16787,1.88966 0.0237,1.22306 -2.48595,-1.44839 z m 19.49329,1.00035 c -1.86402,-1.49339 -1.85176,-1.51185 0.30887,-0.46481 1.2375,0.59969 2.25,1.29951 2.25,1.55516 0,0.76522 -0.51861,0.54424 -2.55887,-1.09035 z M 151,123.88633 l -3.5,-3.03238 3.58333,1.67876 c 1.97084,0.92332 3.58334,2.30618 3.58334,3.07302 0,0.76685 -0.0375,1.37598 -0.0833,1.35363 -0.0458,-0.0224 -1.65833,-1.40522 -3.58333,-3.07303 z m 0.96584,-5.61505 c -3.00621,-3.1508 -4.31184,-4.7258 -2.90139,-3.5 2.754,2.39345 4.50305,2.95598 3.34006,1.07421 -0.43207,-0.6991 -0.27535,-0.8837 0.39731,-0.46797 0.61096,0.37759 0.82901,1.42094 0.48457,2.31855 -0.46382,1.20869 -0.25795,1.41819 0.79367,0.80765 0.78097,-0.4534 1.07832,-0.44811 0.66079,0.0118 -0.41753,0.45987 0.22341,1.88202 1.42432,3.16032 1.2009,1.27831 1.97714,2.32419 1.72498,2.32419 -0.25216,0 -2.9181,-2.57793 -5.92431,-5.72872 z M 69,120.5 c 1.291745,-1.375 2.573628,-2.5 2.848628,-2.5 0.275,0 -0.556883,1.125 -1.848628,2.5 -1.291745,1.375 -2.573628,2.5 -2.848628,2.5 -0.275,0 0.556883,-1.125 1.848628,-2.5 z m 52.27814,0.25 c -1.49918,-1.93844 -2.44224,-3.75 -1.95217,-3.75 0.24421,0 1.18114,1.125 2.08207,2.5 1.68584,2.57291 1.59195,3.47635 -0.1299,1.25 z m -29.199193,-2.33333 c 0.04798,-1.16495 0.284941,-1.4019 0.604167,-0.60417 0.288871,0.72187 0.253344,1.58437 -0.07895,1.91667 -0.332292,0.33229 -0.568641,-0.25834 -0.52522,-1.3125 z M 73.5,115 c 0.995486,-1.1 2.034975,-2 2.309975,-2 0.275,0 -0.314489,0.9 -1.309975,2 -0.995486,1.1 -2.034975,2 -2.309975,2 -0.275,0 0.314489,-0.9 1.309975,-2 z m 21.769032,0.30701 c 0.972967,-0.25354 2.322967,-0.23687 3,0.037 0.677032,0.27393 -0.119032,0.48137 -1.769032,0.46099 -1.65,-0.0204 -2.203936,-0.2445 -1.230968,-0.49804 z m 37.980968,0.004 c 0.9625,-0.25152 2.5375,-0.25152 3.5,0 0.9625,0.25153 0.175,0.45733 -1.75,0.45733 -1.925,0 -2.7125,-0.2058 -1.75,-0.45733 z m -30.4375,-0.99378 c 0.72187,-0.28887 1.58437,-0.25335 1.91667,0.0789 0.33229,0.3323 -0.25834,0.56864 -1.3125,0.52522 -1.16495,-0.048 -1.4019,-0.28494 -0.60417,-0.60416 z m 3.75144,-9.25265 c -5.38306,-5.408117 -8.138279,-8.809992 -6.979152,-8.617168 1.053362,0.175231 1.822622,0.761589 1.709462,1.30302 -0.2389,1.14299 3.73066,5.100048 5.20575,5.189358 0.55,0.0333 1,0.62305 1,1.31055 0,0.6875 0.675,1.25 1.5,1.25 0.825,0 1.5,0.675 1.5,1.5 0,0.825 0.5625,1.5 1.25,1.5 0.6875,0 1.1375,0.29026 1,0.64501 -0.1375,0.35476 0.60724,1.59226 1.65499,2.75 1.04774,1.15775 1.71336,2.10499 1.47915,2.10499 -0.23421,0 -4.4283,-4.02109 -9.3202,-8.93576 z M 77.5,110 c 0.995486,-1.1 2.034975,-2 2.309975,-2 0.275,0 -0.314489,0.9 -1.309975,2 -0.995486,1.1 -2.034975,2 -2.309975,2 -0.275,0 0.314489,-0.9 1.309975,-2 z m 66.37244,0.25 c -1.24387,-1.58606 -1.2085,-1.62143 0.37756,-0.37756 1.66575,1.30637 2.19548,2.12756 1.37244,2.12756 -0.20765,0 -0.99515,-0.7875 -1.75,-1.75 z m -42.91828,-2.33565 c -0.61391,-1.1471 -0.92784,-2.274 -0.69762,-2.50422 0.23022,-0.23022 0.93203,0.70832 1.55958,2.08564 1.37807,3.02454 0.70709,3.35038 -0.86196,0.41858 z m 39.02578,-1.43852 c -0.69572,-0.83829 -0.97582,-1.81329 -0.62244,-2.16666 0.35337,-0.35338 0.6425,-0.103 0.6425,0.55639 0,0.65939 1.0125,1.60586 2.25,2.10328 1.52262,0.61201 1.72384,0.92488 0.62244,0.96777 -0.89515,0.0349 -2.19678,-0.62248 -2.8925,-1.46078 z M 95.611705,92.430504 c -0.545445,-1.421409 -0.881379,-1.462896 -2.373538,-0.293128 -1.583398,1.241294 -1.612253,1.202332 -0.32407,-0.437564 1.267837,-1.613995 1.571971,-1.642315 2.940477,-0.27381 0.839508,0.839508 1.271256,1.781501 0.959441,2.093317 -0.311816,0.311815 -0.852855,-0.178151 -1.20231,-1.088815 z"
         id="path2" />
    </g>
  </g>
</svg>
