<?xml version="1.0" encoding="UTF-8" standalone="no"?>
<!-- Created with Inkscape (http://www.inkscape.org/) -->

<svg
   version="1.1"
   id="svg1"
   width="389.60001"
   height="393.60001"
   viewBox="0 0 389.60001 393.60001"
   sodipodi:docname="logo.svg"
   inkscape:version="1.3.2 (091e20e, 2023-11-25, custom)"
   xmlns:inkscape="http://www.inkscape.org/namespaces/inkscape"
   xmlns:sodipodi="http://sodipodi.sourceforge.net/DTD/sodipodi-0.dtd"
   xmlns="http://www.w3.org/2000/svg"
   xmlns:svg="http://www.w3.org/2000/svg">
  <sodipodi:namedview
     id="namedview1"
     pagecolor="#ffffff"
     bordercolor="#000000"
     borderopacity="0.25"
     inkscape:showpageshadow="2"
     inkscape:pageopacity="0.0"
     inkscape:pagecheckerboard="0"
     inkscape:deskcolor="#d1d1d1"
     inkscape:zoom="1.9740853"
     inkscape:cx="195.02703"
     inkscape:cy="196.8"
     inkscape:window-width="1920"
     inkscape:window-height="991"
     inkscape:window-x="-9"
     inkscape:window-y="-9"
     inkscape:window-maximized="1"
     inkscape:current-layer="svg1" />
  <defs
     id="defs1" />
  <path
     style="fill:#ff0000;stroke:#000000;stroke-width:4.05251"
     d="m 149.47563,185.69474 c -1.26153,-0.16467 -2.34253,-0.60319 -2.47444,-1.00378 -0.14342,-0.43553 8.4001,-9.30551 22.03316,-22.87511 22.33642,-22.23243 26.99164,-26.31006 30.03688,-26.31006 0.74487,0 2.39548,0.68965 3.66801,1.53254 2.28934,1.5164 6.4741,5.67894 6.46886,6.43452 -0.001,0.21519 -1.29286,1.30306 -2.8697,2.4175 -5.69845,4.0274 -10.31172,8.27997 -25.82801,23.80863 l -15.78306,15.79562 -6.50575,0.24629 c -3.57816,0.13545 -7.51384,0.11469 -8.74595,-0.0462 z"
     id="path2" />
  <path
     style="fill:#ff0000;stroke:#000000;stroke-width:4.05251"
     d="m 111.06409,185.80467 c -0.62687,-0.12075 -1.13976,-0.40119 -1.13976,-0.62321 0,-0.59049 16.80537,-16.93222 25.42056,-24.71923 4.07923,-3.68709 10.2293,-9.72235 13.66683,-13.4117 10.60209,-11.37874 18.60261,-19.44828 26.25933,-26.48587 12.74526,-11.71468 14.61685,-12.89031 20.55053,-12.90875 7.29088,-0.0226 10.94673,2.09274 23.26723,13.46312 16.47831,15.20756 63.06718,62.16342 63.06718,63.56397 0,0.72208 -1.76002,0.97993 -8.90462,1.30456 l -7.30156,0.33178 -25.96536,-25.7867 c -36.20931,-35.96016 -37.78562,-37.32405 -43.22632,-37.40116 -2.0686,-0.0293 -3.00872,0.26222 -4.78272,1.48319 -2.39865,1.65091 -31.40181,29.77071 -50.89346,49.3434 l -12.15357,12.2041 -8.36226,-0.069 c -4.59924,-0.0379 -8.87515,-0.16777 -9.50203,-0.28851 z"
     id="path3" />
  <path
     style="fill:#ff0000;stroke:#000000;stroke-width:4.05251"
     d="m 132.92453,149.15039 c -3.07421,-1.1826 -6.01178,-3.95917 -6.86995,-6.49344 -0.34124,-1.00773 -0.63385,-3.10181 -0.65025,-4.65351 -0.0371,-3.5083 1.69321,-6.40485 5.12672,-8.58232 5.61392,-3.56024 11.52078,-1.85174 15.17889,4.39034 3.40097,5.80332 0.1443,13.22863 -6.84671,15.6107 -2.78507,0.94897 -2.76264,0.95 -5.9387,-0.27177 z"
     id="path4" />
  <path
     style="fill:#ff0000;stroke:#000000;stroke-width:4.05251"
     d="M 182.36294,312.75107 C 157.0817,309.9087 131.51513,297.33535 112.42817,278.35795 96.003854,262.02791 85.344637,241.88122 80.534011,218.07568 c -1.397068,-6.91344 -1.939865,-17.35765 -1.461129,-28.11429 0.453475,-10.18906 1.321738,-15.96207 3.705748,-24.63923 3.616029,-13.16137 7.773515,-22.31283 15.411359,-33.92346 5.781501,-8.78873 9.430911,-13.26485 15.870271,-19.46544 17.85371,-17.191692 41.27366,-28.155695 67.63984,-31.665459 6.20138,-0.825503 26.86432,-0.358989 34.09604,0.769798 48.58978,7.584301 85.18744,43.322821 96.33628,94.074741 1.48496,6.75987 1.87407,26.60367 0.71845,36.63986 -4.57327,39.71753 -33.45768,76.85917 -72.48936,93.21199 -14.22982,5.96177 -27.33493,8.3971 -44.55538,8.27975 -5.30418,-0.0362 -11.35362,-0.25794 -13.44319,-0.49287 z m 23.55521,-14.63872 c 44.54604,-4.04606 80.67673,-36.26554 90.67911,-80.86297 2.51897,-11.23125 2.524,-30.72479 0.0108,-41.88694 -4.70035,-20.8763 -14.68956,-39.18265 -28.96162,-53.07542 -19.07497,-18.56803 -46.51122,-28.699083 -74.89851,-27.656856 -23.80996,0.874174 -45.92252,9.067226 -62.88393,23.299486 -16.15983,13.55966 -27.53561,32.04427 -33.370541,54.22408 -2.081095,7.91069 -2.743455,14.03206 -2.749054,25.40612 -0.0067,13.62585 0.910249,19.76042 4.601975,30.78791 8.6058,25.70623 27.74985,47.62983 51.84975,59.37791 18.26084,8.90168 35.89073,12.18793 55.72201,10.38668 z"
     id="path5" />
  <path
     style="fill:#ff0000;stroke:#000000;stroke-width:4.05251"
     d="m 184.80767,185.79545 c -3.28604,-0.3468 -3.39348,-1.26484 -0.53424,-4.56526 3.35725,-3.87528 16.57484,-16.75059 21.57434,-21.01566 6.85956,-5.85189 10.0659,-6.68963 14.9293,-3.90068 2.61581,1.50006 23.20935,21.6014 26.88552,26.24294 l 1.61143,2.0346 -2.17523,0.60916 c -1.19638,0.33504 -4.93305,0.63148 -8.30371,0.65875 l -6.12847,0.0496 -4.75347,-4.5194 c -5.03913,-4.79099 -9.69858,-8.12008 -12.10466,-8.64854 -2.14624,-0.4714 -3.77658,0.58541 -10.22192,6.62599 -3.16094,2.96245 -6.4807,5.70329 -7.37724,6.09075 -1.55207,0.67078 -8.57016,0.84766 -13.40165,0.33777 z"
     id="path6" />
  <path
     style="fill:#ff0000;stroke:#000000;stroke-width:4.05251"
     d="m 122.45756,233.23906 c -6.08682,-0.31487 -7.89529,-0.5897 -9.73225,-1.47896 -2.41572,-1.16942 -4.32189,-3.65839 -4.31878,-5.63919 0.002,-1.55901 1.66088,-4.26911 3.07588,-5.02639 1.83323,-0.98112 13.70406,-1.40385 49.59563,-1.76617 l 34.18382,-0.34507 3.32539,-1.67463 c 4.28378,-2.15728 7.29921,-4.56748 15.20766,-12.15526 10.53217,-10.10514 9.54821,-9.8739 43.53946,-10.23212 29.15725,-0.30728 28.08834,-0.43479 30.81071,3.67524 1.80844,2.73026 1.91436,3.42858 0.89134,5.87701 -1.7071,4.08567 -3.59652,4.4498 -23.34375,4.49892 -7.80108,0.0194 -18.51491,0.22594 -23.8085,0.45897 -13.32433,0.58656 -13.45216,0.64096 -22.84285,9.72049 -7.79539,7.53708 -11.34349,10.14913 -16.78312,12.35545 -3.03457,1.23083 -4.39972,1.43967 -11.79024,1.8037 -10.2888,0.5068 -57.79419,0.45651 -68.0104,-0.072 z"
     id="path7" />
  <path
     style="fill:#ff0000;stroke:#000000;stroke-width:4.05251"
     d="m 234.17425,233.21635 c -2.25092,-0.65055 -4.19432,-4.00781 -4.19432,-7.24576 0,-1.9623 0.26287,-2.66351 1.43964,-3.84029 2.51911,-2.5191 4.13681,-2.68034 25.9148,-2.58289 11.00509,0.0493 20.92108,0.29472 22.03552,0.5455 2.84649,0.64054 4.97731,3.19239 4.61391,5.52559 -0.31675,2.03375 -2.36616,5.29339 -4.00194,6.3652 -2.19674,1.43936 -41.4387,2.49533 -45.80761,1.23265 z"
     id="path8" />
  <path
     style="fill:#ff0000;stroke:#000000;stroke-width:4.05251"
     d="m 144.11738,258.1214 c -7.30827,-0.2248 -9.43606,-0.45442 -10.71975,-1.15683 -3.5474,-1.94107 -4.53894,-4.94244 -2.80452,-8.48919 1.15942,-2.37092 2.60403,-2.95879 8.78894,-3.57656 7.07264,-0.70644 117.09205,-0.40085 119.21873,0.33114 1.80704,0.62198 3.80257,3.36666 3.79089,5.21407 -0.011,1.74031 -1.91719,5.01285 -3.68242,6.32198 -1.37852,1.02233 -2.14741,1.0547 -33.17992,1.39713 -35.68231,0.39373 -67.78981,0.37727 -81.41195,-0.0417 z"
     id="path9" />
  <path
     style="fill:#ff0000;stroke:#000000;stroke-width:4.05251"
     d="m 170.20541,283.96774 c -6.26441,-0.26754 -7.03694,-0.40865 -9.2007,-1.68063 -2.88137,-1.69383 -4.47652,-4.12109 -4.47652,-6.8117 0,-1.56397 0.3965,-2.46515 1.81244,-4.11936 l 1.81245,-2.11744 h 35.18004 35.18003 l 2.18842,2.18843 c 1.20364,1.20363 2.34721,2.82106 2.54127,3.59429 0.51536,2.05331 -1.37166,5.62536 -3.83176,7.25338 -1.88465,1.2472 -2.47537,1.33923 -10.9564,1.70691 -10.09729,0.43775 -39.86693,0.42952 -50.24927,-0.0139 z"
     id="path10" />
  <path
     style="fill:#ff0000;stroke:#000000;stroke-width:4.05251"
     d="m 106.78713,207.11202 c -3.10078,-3.20893 -3.7079,-4.79912 -2.66853,-6.98944 0.43276,-0.91197 1.42652,-2.27098 2.20837,-3.02004 l 1.42153,-1.36191 37.18058,-0.53574 c 46.43134,-0.66903 46.94714,-0.62352 48.83034,4.30757 0.8031,2.10289 0.80392,2.363 0.0126,4.03049 -1.28639,2.71088 -4.12599,4.41046 -8.20527,4.91109 -1.90143,0.23335 -19.8698,0.58042 -39.92972,0.77126 l -36.47259,0.34699 z"
     id="path11" />
</svg>
